<?xml version="1.0" encoding="UTF-8" standalone="no"?>
<svg
   width="1200"
   height="1000"
   version="1.1"
   id="svg76"
   sodipodi:docname="use-case-diagram.svg"
   inkscape:export-filename="use-case-diagram.png"
   inkscape:export-xdpi="96"
   inkscape:export-ydpi="96"
   inkscape:version="1.4.2 (f4327f4, 2025-05-13)"
   xmlns:inkscape="http://www.inkscape.org/namespaces/inkscape"
   xmlns:sodipodi="http://sodipodi.sourceforge.net/DTD/sodipodi-0.dtd"
   xmlns="http://www.w3.org/2000/svg"
   xmlns:svg="http://www.w3.org/2000/svg">
  <defs
     id="defs76" />
  <sodipodi:namedview
     id="namedview76"
     pagecolor="#ffffff"
     bordercolor="#000000"
     borderopacity="0.25"
     inkscape:showpageshadow="2"
     inkscape:pageopacity="0.0"
     inkscape:pagecheckerboard="0"
     inkscape:deskcolor="#d1d1d1"
     inkscape:export-bgcolor="#ffffffff"
     inkscape:zoom="1.167"
     inkscape:cx="600.25707"
     inkscape:cy="486.28963"
     inkscape:window-width="2560"
     inkscape:window-height="1369"
     inkscape:window-x="-8"
     inkscape:window-y="-8"
     inkscape:window-maximized="1"
     inkscape:current-layer="svg76" />
  <style
     id="style1">
    .actor { fill: #fff; stroke: #000; stroke-width: 2px; }
    .use-case { fill: #E7F5FE; stroke: #0078D7; stroke-width: 2px; }
    .system { fill: none; stroke: #000; stroke-width: 2px; stroke-dasharray: none; }
    .association { stroke: #000; stroke-width: 1.5px; }
    .include { stroke: #000; stroke-width: 1.5px; stroke-dasharray: 5,5; }
    .extend { stroke: #000; stroke-width: 1.5px; stroke-dasharray: 5,5; }
    .actor-text { font-family: Arial; font-size: 16px; text-anchor: middle; }
    .use-case-text { font-family: Arial; font-size: 14px; text-anchor: middle; }
    .relationship-text { font-family: Arial; font-size: 12px; text-anchor: middle; font-style: italic; }
    .title { font-family: Arial; font-size: 24px; font-weight: bold; text-anchor: middle; }
    .subtitle { font-family: Arial; font-size: 18px; font-weight: bold; text-anchor: middle; }
  </style>
  <!-- Title -->
  <text
     x="600"
     y="40"
     class="title"
     id="text1">Airbnb Clone - Use Case Diagram</text>
  <!-- System Boundary -->
  <rect
     x="200"
     y="80"
     width="800"
     height="850"
     rx="20"
     ry="20"
     class="system"
     id="rect1" />
  <text
     x="600"
     y="110"
     class="subtitle"
     id="text2">Airbnb Clone System</text>
  <!-- Actors -->
  <!-- Guest User -->
  <circle
     cx="100"
     cy="250"
     r="25"
     class="actor"
     id="circle2" />
  <line
     x1="100"
     y1="275"
     x2="100"
     y2="350"
     class="actor"
     id="line2" />
  <line
     x1="60"
     y1="310"
     x2="140"
     y2="310"
     class="actor"
     id="line3" />
  <line
     x1="100"
     y1="350"
     x2="60"
     y2="400"
     class="actor"
     id="line4" />
  <line
     x1="100"
     y1="350"
     x2="140"
     y2="400"
     class="actor"
     id="line5" />
  <text
     x="100"
     y="430"
     class="actor-text"
     id="text5">Guest User</text>
  <!-- Host User -->
  <circle
     cx="100"
     cy="550"
     r="25"
     class="actor"
     id="circle5" />
  <line
     x1="100"
     y1="575"
     x2="100"
     y2="650"
     class="actor"
     id="line6" />
  <line
     x1="60"
     y1="610"
     x2="140"
     y2="610"
     class="actor"
     id="line7" />
  <line
     x1="100"
     y1="650"
     x2="60"
     y2="700"
     class="actor"
     id="line8" />
  <line
     x1="100"
     y1="650"
     x2="140"
     y2="700"
     class="actor"
     id="line9" />
  <text
     x="100"
     y="730"
     class="actor-text"
     id="text9">Host User</text>
  <!-- Admin -->
  <circle
     cx="95.715508"
     cy="814.86719"
     r="25"
     class="actor"
     id="circle9" />
  <line
     x1="95.715508"
     y1="839.86719"
     x2="95.715508"
     y2="914.86719"
     class="actor"
     id="line10" />
  <line
     x1="55.715511"
     y1="874.86719"
     x2="135.71552"
     y2="874.86719"
     class="actor"
     id="line11" />
  <line
     x1="95.715508"
     y1="914.86719"
     x2="55.715511"
     y2="964.86719"
     class="actor"
     id="line12" />
  <line
     x1="95.715508"
     y1="914.86719"
     x2="135.71552"
     y2="964.86719"
     class="actor"
     id="line13" />
  <text
     x="95.715508"
     y="994.86719"
     class="actor-text"
     id="text13">Admin</text>
  <!-- Payment System -->
  <circle
     cx="1100"
     cy="550"
     r="25"
     class="actor"
     id="circle13" />
  <line
     x1="1100"
     y1="575"
     x2="1100"
     y2="650"
     class="actor"
     id="line14" />
  <line
     x1="1060"
     y1="610"
     x2="1140"
     y2="610"
     class="actor"
     id="line15" />
  <line
     x1="1100"
     y1="650"
     x2="1060"
     y2="700"
     class="actor"
     id="line16" />
  <line
     x1="1100"
     y1="650"
     x2="1140"
     y2="700"
     class="actor"
     id="line17" />
  <text
     x="1100"
     y="730"
     class="actor-text"
     id="text17">Payment System</text>
  <!-- User Management Use Cases -->
  <text
     x="350"
     y="160"
     class="subtitle"
     id="text18">User Management</text>
  <ellipse
     cx="300"
     cy="200"
     rx="80"
     ry="30"
     class="use-case"
     id="ellipse18" />
  <text
     x="300"
     y="205"
     class="use-case-text"
     id="text19">Register Account</text>
  <ellipse
     cx="300"
     cy="270"
     rx="80"
     ry="30"
     class="use-case"
     id="ellipse19" />
  <text
     x="300"
     y="275"
     class="use-case-text"
     id="text20">Login to System</text>
  <ellipse
     cx="300"
     cy="340"
     rx="80"
     ry="30"
     class="use-case"
     id="ellipse20" />
  <text
     x="300"
     y="345"
     class="use-case-text"
     id="text21">Manage Profile</text>
  <ellipse
     cx="300"
     cy="410"
     rx="80"
     ry="30"
     class="use-case"
     id="ellipse21" />
  <text
     x="300"
     y="415"
     class="use-case-text"
     id="text22">Reset Password</text>
  <!-- Property Management Use Cases -->
  <text
     x="600"
     y="160"
     class="subtitle"
     id="text23">Property Management</text>
  <ellipse
     cx="600"
     cy="200"
     rx="80"
     ry="30"
     class="use-case"
     id="ellipse23" />
  <text
     x="600"
     y="205"
     class="use-case-text"
     id="text24">Create Listing</text>
  <ellipse
     cx="600"
     cy="270"
     rx="80"
     ry="30"
     class="use-case"
     id="ellipse24" />
  <text
     x="600"
     y="275"
     class="use-case-text"
     id="text25">Edit Property</text>
  <ellipse
     cx="600"
     cy="340"
     rx="80"
     ry="30"
     class="use-case"
     id="ellipse25" />
  <text
     x="600"
     y="345"
     class="use-case-text"
     id="text26">Upload Images</text>
  <ellipse
     cx="600"
     cy="410"
     rx="80"
     ry="30"
     class="use-case"
     id="ellipse26" />
  <text
     x="600"
     y="415"
     class="use-case-text"
     id="text27">Manage Availability</text>
  <ellipse
     cx="600"
     cy="480"
     rx="80"
     ry="30"
     class="use-case"
     id="ellipse27" />
  <text
     x="600"
     y="485"
     class="use-case-text"
     id="text28">Remove Listing</text>
  <ellipse
     cx="600"
     cy="550"
     rx="80"
     ry="30"
     class="use-case"
     id="ellipse28" />
  <text
     x="600"
     y="555"
     class="use-case-text"
     id="text29">View Booking Requests</text>
  <!-- Booking System Use Cases -->
  <text
     x="850"
     y="160"
     class="subtitle"
     id="text30">Booking System</text>
  <ellipse
     cx="850"
     cy="200"
     rx="80"
     ry="30"
     class="use-case"
     id="ellipse30" />
  <text
     x="850"
     y="205"
     class="use-case-text"
     id="text31">Search Properties</text>
  <ellipse
     cx="850"
     cy="270"
     rx="80"
     ry="30"
     class="use-case"
     id="ellipse31" />
  <text
     x="850"
     y="275"
     class="use-case-text"
     id="text32">Filter Results</text>
  <ellipse
     cx="850"
     cy="340"
     rx="80"
     ry="30"
     class="use-case"
     id="ellipse32" />
  <text
     x="850"
     y="345"
     class="use-case-text"
     id="text33">View Property Details</text>
  <ellipse
     cx="850"
     cy="410"
     rx="80"
     ry="30"
     class="use-case"
     id="ellipse33" />
  <text
     x="850"
     y="415"
     class="use-case-text"
     id="text34">Book Property</text>
  <ellipse
     cx="850"
     cy="480"
     rx="80"
     ry="30"
     class="use-case"
     id="ellipse34" />
  <text
     x="850"
     y="485"
     class="use-case-text"
     id="text35">Cancel Booking</text>
  <ellipse
     cx="850"
     cy="550"
     rx="80"
     ry="30"
     class="use-case"
     id="ellipse35" />
  <text
     x="850"
     y="555"
     class="use-case-text"
     id="text36">View Booking History</text>
  <ellipse
     cx="850"
     cy="620"
     rx="80"
     ry="30"
     class="use-case"
     id="ellipse36" />
  <text
     x="850"
     y="625"
     class="use-case-text"
     id="text37">Review Property</text>
  <!-- Payment System Use Cases -->
  <text
     x="600"
     y="630"
     class="subtitle"
     id="text38">Payment System</text>
  <ellipse
     cx="600"
     cy="680"
     rx="80"
     ry="30"
     class="use-case"
     id="ellipse38" />
  <text
     x="600"
     y="685"
     class="use-case-text"
     id="text39">Process Payment</text>
  <ellipse
     cx="600"
     cy="750"
     rx="80"
     ry="30"
     class="use-case"
     id="ellipse39" />
  <text
     x="600"
     y="755"
     class="use-case-text"
     id="text40">Issue Refund</text>
  <ellipse
     cx="600"
     cy="820"
     rx="80"
     ry="30"
     class="use-case"
     id="ellipse40" />
  <text
     x="600"
     y="825"
     class="use-case-text"
     id="text41">Pay Host</text>
  <!-- Admin Functions -->
  <text
     x="850"
     y="700"
     class="subtitle"
     id="text42">Admin Functions</text>
  <ellipse
     cx="850"
     cy="750"
     rx="80"
     ry="30"
     class="use-case"
     id="ellipse42" />
  <text
     x="850"
     y="755"
     class="use-case-text"
     id="text43">Manage Users</text>
  <ellipse
     cx="850"
     cy="820"
     rx="80"
     ry="30"
     class="use-case"
     id="ellipse43" />
  <text
     x="850"
     y="825"
     class="use-case-text"
     id="text44">Moderate Content</text>
  <ellipse
     cx="850"
     cy="890"
     rx="80"
     ry="30"
     class="use-case"
     id="ellipse44" />
  <text
     x="850"
     y="895"
     class="use-case-text"
     id="text45">Resolve Disputes</text>
  <!-- Associations -->
  <!-- Guest User Associations -->
  <line
     x1="140"
     y1="250"
     x2="220"
     y2="200"
     class="association"
     id="line45" />
  <line
     x1="140"
     y1="250"
     x2="220"
     y2="270"
     class="association"
     id="line46" />
  <line
     x1="140"
     y1="250"
     x2="220"
     y2="340"
     class="association"
     id="line47" />
  <line
     x1="140"
     y1="250"
     x2="220"
     y2="410"
     class="association"
     id="line48" />
  <line
     x1="140"
     y1="250"
     x2="770"
     y2="200"
     class="association"
     id="line49" />
  <line
     x1="140"
     y1="250"
     x2="770"
     y2="270"
     class="association"
     id="line50" />
  <line
     x1="140"
     y1="250"
     x2="770"
     y2="340"
     class="association"
     id="line51" />
  <line
     x1="140"
     y1="250"
     x2="770"
     y2="410"
     class="association"
     id="line52" />
  <line
     x1="140"
     y1="250"
     x2="770"
     y2="480"
     class="association"
     id="line53" />
  <line
     x1="140"
     y1="250"
     x2="770"
     y2="550"
     class="association"
     id="line54" />
  <line
     x1="140"
     y1="250"
     x2="770"
     y2="620"
     class="association"
     id="line55" />
  <!-- Host User Associations -->
  <line
     x1="140"
     y1="550"
     x2="220"
     y2="200"
     class="association"
     id="line56" />
  <line
     x1="140"
     y1="550"
     x2="220"
     y2="270"
     class="association"
     id="line57" />
  <line
     x1="140"
     y1="550"
     x2="220"
     y2="340"
     class="association"
     id="line58" />
  <line
     x1="140"
     y1="550"
     x2="220"
     y2="410"
     class="association"
     id="line59" />
  <line
     x1="140"
     y1="550"
     x2="520"
     y2="200"
     class="association"
     id="line60" />
  <line
     x1="140"
     y1="550"
     x2="520"
     y2="270"
     class="association"
     id="line61" />
  <line
     x1="140"
     y1="550"
     x2="520"
     y2="340"
     class="association"
     id="line62" />
  <line
     x1="140"
     y1="550"
     x2="520"
     y2="410"
     class="association"
     id="line63" />
  <line
     x1="140"
     y1="550"
     x2="520"
     y2="480"
     class="association"
     id="line64" />
  <line
     x1="140"
     y1="550"
     x2="520"
     y2="550"
     class="association"
     id="line65" />
  <!-- Admin Associations -->
  <line
     x1="140"
     y1="850"
     x2="770"
     y2="750"
     class="association"
     id="line66" />
  <line
     x1="140"
     y1="850"
     x2="770"
     y2="820"
     class="association"
     id="line67" />
  <line
     x1="140"
     y1="850"
     x2="770"
     y2="890"
     class="association"
     id="line68" />
  <!-- Payment System Associations -->
  <line
     x1="1060"
     y1="550"
     x2="680"
     y2="680"
     class="association"
     id="line69" />
  <line
     x1="1060"
     y1="550"
     x2="680"
     y2="750"
     class="association"
     id="line70" />
  <line
     x1="1060"
     y1="550"
     x2="680"
     y2="820"
     class="association"
     id="line71" />
  <!-- Include Relationships -->
  <line
     x1="850"
     y1="440"
     x2="650"
     y2="680"
     class="include"
     id="line72" />
  <text
     x="750"
     y="560"
     class="relationship-text"
     transform="rotate(-45, 750, 560)"
     id="text72">«include»</text>
  <line
     x1="850"
     y1="510"
     x2="650"
     y2="750"
     class="include"
     id="line73" />
  <text
     x="750"
     y="630"
     class="relationship-text"
     transform="rotate(-45, 750, 630)"
     id="text73">«include»</text>
  <line
     x1="600"
     y1="580"
     x2="600"
     y2="650"
     class="include"
     id="line74" />
  <text
     x="620"
     y="610"
     class="relationship-text"
     id="text74">«include»</text>
  <!-- Extend Relationships -->
  <line
     x1="850"
     y1="300"
     x2="850"
     y2="370"
     class="extend"
     id="line75" />
  <text
     x="870"
     y="335"
     class="relationship-text"
     id="text75">«extend»</text>
  <line
     x1="850"
     y1="230"
     x2="850"
     y2="300"
     class="extend"
     id="line76" />
  <text
     x="870"
     y="265"
     class="relationship-text"
     id="text76">«extend»</text>
</svg>
